<?xml version="1.0" encoding="UTF-8"?>
<svg id="katman_1" data-name="katman 1" xmlns="http://www.w3.org/2000/svg" xmlns:xlink="http://www.w3.org/1999/xlink" viewBox="0 0 536.45 287.96">
  <defs>
    <style>
      .cls-1 {
        fill: url(#Adsız_degrade);
      }

      .cls-2 {
        fill: #1d1d1b;
      }
    </style>
    <linearGradient id="Adsız_degrade" data-name="Adsız degrade" x1="94.48" y1="202.6" x2="128.74" y2="202.6" gradientTransform="translate(0 220.6) scale(1 -1)" gradientUnits="userSpaceOnUse">
      <stop offset="0" stop-color="#824b37"/>
      <stop offset="1" stop-color="#d7987a"/>
    </linearGradient>
  </defs>
  <path class="cls-2" d="M32.3,10.34v32.82c0,1.6-1.3,2.89-2.89,2.89H9.47C4.24,46.05,0,50.29,0,55.52v.29C0,61.04,4.24,65.28,9.47,65.28h20.69c1.6,0,2.89,1.3,2.89,2.89v40.38s1.05,43.75,43.69,43.97c0,0,10.28,1.4,11.72-8.49.98-6.78-3.8-9.37-7.4-10.39-1.25-.36-2.55-.55-3.85-.58-3.79-.09-17.73-1.44-23.18-16.19-1.2-3.24-1.73-6.69-1.76-10.15l-.33-38.52c0-1.61,1.29-2.92,2.89-2.92h24.14c5.23,0,9.47-4.24,9.47-9.47v-.29c0-5.23-4.24-9.47-9.47-9.47h-24.57c-1.59,0-2.88-1.28-2.89-2.87l-.27-32.92c-.04-5.2-4.27-9.39-9.47-9.39h0c-5.23,0-9.47,4.24-9.47,9.47Z"/>
  <path class="cls-2" d="M111.61,45.48h0c5.5,0,9.96,4.46,9.96,9.96v87.19c0,5.5-4.46,9.96-9.96,9.96h0c-5.5,0-9.96-4.46-9.96-9.96V55.44c0-5.5,4.46-9.96,9.96-9.96Z"/>
  <circle class="cls-1" cx="111.61" cy="18" r="17.13"/>
  <path class="cls-2" d="M163.27,149.63s1.92-.55,3.58-1.64c1.16-.75,1.88-2.02,2.02-3.44,0,0,0-.08.02-.2.14-1.49-.52-2.97-1.77-3.8-1.53-1.01-3.62-2.1-5.05-2.81-.94-.47-1.9-.87-2.87-1.28-22.61-9.62-39.45-50.78-13.25-77.39s59.85-9.74,59.85-9.74c15.15-1.72,18.81-16.25,19.45-26.73.36-5.87,5.48-10.29,11.34-9.71h0c5.89.58,10.06,5.97,9.22,11.83-3.86,27.1-24.47,40.92-24.47,40.92,8,10.42,7.7,27.77,7.7,27.77-1.36,32.39-23.98,43.21-32.13,46.07-1.73.61-2.89,2.24-2.89,4.07h0c0,2.11,1.53,3.92,3.62,4.25,30.84,4.91,31.4,37.07,31.4,37.07,0,0-.75,34.26-46.49,36.56-30.19,1.51-41.57-15.56-45.82-27.34-2.73-7.58-2.93-15.94,0-23.45,7.06-18.03,26.53-21.02,26.53-21.02h.01ZM181.26,165.54c-15.79,0-28.58,8.16-28.58,18.23s12.8,18.23,28.58,18.23,28.58-8.16,28.58-18.23-12.8-18.23-28.58-18.23ZM181.26,64.87c-15.85,0-28.7,12.85-28.7,28.7s12.85,28.7,28.7,28.7,28.7-12.85,28.7-28.7-12.85-28.7-28.7-28.7Z"/>
  <path class="cls-2" d="M270.75,149.63s1.92-.55,3.58-1.64c1.16-.75,1.88-2.02,2.02-3.44,0,0,0-.08.02-.2.14-1.49-.52-2.97-1.77-3.8-1.53-1.01-3.62-2.1-5.05-2.81-.94-.47-1.9-.87-2.87-1.28-22.61-9.62-39.45-50.78-13.25-77.39,26.92-27.34,59.85-9.74,59.85-9.74,15.15-1.72,18.81-16.25,19.45-26.73.36-5.87,5.48-10.29,11.34-9.71h0c5.89.58,10.06,5.97,9.22,11.83-3.86,27.1-24.47,40.92-24.47,40.92,8,10.42,7.7,27.77,7.7,27.77-1.36,32.39-23.98,43.21-32.13,46.07-1.73.61-2.89,2.24-2.89,4.07h0c0,2.11,1.53,3.92,3.62,4.25,30.84,4.91,31.4,37.07,31.4,37.07,0,0-.75,34.26-46.49,36.56-30.19,1.51-41.57-15.56-45.82-27.34-2.73-7.58-2.93-15.94,0-23.45,7.06-18.03,26.53-21.02,26.53-21.02h.01ZM288.73,165.54c-15.79,0-28.58,8.16-28.58,18.23s12.8,18.23,28.58,18.23,28.58-8.16,28.58-18.23-12.8-18.23-28.58-18.23ZM288.73,64.87c-15.85,0-28.7,12.85-28.7,28.7s12.85,28.7,28.7,28.7,28.7-12.85,28.7-28.7-12.85-28.7-28.7-28.7Z"/>
  <path class="cls-2" d="M419.59,49.62c28.34,13.92,28.4,39.12,24.69,48.51-1.89,4.77-5.75,8.44-10.88,8.4l-62.78-.49c-2.06-.02-3.58,1.95-3.01,3.93,2.09,7.25,9.03,21.96,30.84,22.27,14.46.21,21.82-5.26,26.92-10.96,3.13-3.5,8.42-4.03,12.11-1.12l.17.13c3.92,3.08,4.65,8.79,1.67,12.73-15.78,20.88-34.53,19.48-34.53,19.48,0,0-52.97,4.5-58.26-50.81-2.44-25.56,10.31-41.39,23.55-49.43,16.17-9.83,32.52-10.99,49.51-2.64ZM371.25,86.6h51.81c1.67,0,2.89-1.6,2.42-3.2-1.47-4.99-6.02-14.45-19.83-18.36-7.86-2.23-16.34-1.64-23.51,2.28-5.13,2.8-10.39,7.63-13.27,15.93-.57,1.64.65,3.35,2.38,3.35h0Z"/>
  <path class="cls-2" d="M478.08,58.4l-.23-5.38c0-5.53-4.49-10.02-10.02-10.02h0c-5.53,0-10.02,4.49-10.02,10.02v89.49c0,5.56,4.51,10.07,10.07,10.07h0c5.52,0,10.01-4.45,10.07-9.97l.45-43.45c.2-18.8,14.81-34.3,33.57-35.6h0c3.86-.27,7.73.14,11.45,1.21h1.02c5.47-.03,8.3-3.78,8.3-9.25h0c0-4.06-2.45-8.95-6.34-10.11,0,0-5.13-3.92-22.33-.78-11.38,2.08-18.55,7.16-26.01,13.76h.02Z"/>
  <g>
    <path class="cls-2" d="M393.31,197.64c.73.75,1.1,1.69,1.1,2.8v13.67c0,1.5-.67,2.67-2,3.48-4.21,2.62-8.83,3.93-13.86,3.93-4.25,0-8.19-1.04-11.8-3.13-3.61-2.08-6.47-4.9-8.57-8.45-2.11-3.55-3.16-7.42-3.16-11.64s1.05-8.09,3.16-11.64c2.11-3.55,4.96-6.36,8.57-8.45,3.61-2.08,7.54-3.13,11.8-3.13s7.95.86,11.09,2.58c.65.34,1.13.8,1.45,1.35.32.56.48,1.16.48,1.81,0,1.07-.35,2.01-1.06,2.8-.71.79-1.58,1.19-2.61,1.19-.64,0-1.35-.17-2.13-.52-2.32-.99-4.73-1.48-7.22-1.48-2.75,0-5.29.7-7.61,2.1-2.32,1.4-4.16,3.28-5.51,5.64s-2.03,4.94-2.03,7.74.68,5.37,2.03,7.74c1.35,2.37,3.19,4.25,5.51,5.64,2.32,1.4,4.86,2.1,7.61,2.1,1.2,0,2.49-.11,3.87-.32s2.58-.49,3.61-.84v-8.38h-6.06c-1.12,0-2.05-.37-2.8-1.1-.75-.73-1.13-1.65-1.13-2.77s.38-2.04,1.13-2.77c.75-.73,1.69-1.1,2.8-1.1h10.57c1.12,0,2.04.38,2.77,1.13v.02Z"/>
    <path class="cls-2" d="M408.97,219.75c-.82.75-1.76,1.13-2.84,1.13-1.16,0-2.12-.38-2.87-1.13s-1.13-1.69-1.13-2.8v-37.27c0-1.12.39-2.05,1.16-2.8s1.76-1.13,2.97-1.13c1.07,0,2,.38,2.77,1.13s1.16,1.69,1.16,2.8v37.27c0,1.12-.41,2.05-1.22,2.8Z"/>
    <path class="cls-2" d="M427.93,183.17v11.35h13.93c1.12,0,2.05.35,2.8,1.06s1.13,1.62,1.13,2.74c0,.95-.38,1.78-1.13,2.51s-1.69,1.1-2.8,1.1h-13.93v15.02c0,1.12-.4,2.05-1.19,2.8-.8.75-1.73,1.13-2.8,1.13-1.2,0-2.18-.36-2.93-1.1-.75-.73-1.13-1.68-1.13-2.84v-37.27c0-1.12.38-2.05,1.13-2.8s1.69-1.13,2.8-1.13h20.95c1.12,0,2.05.35,2.8,1.06.75.71,1.13,1.62,1.13,2.74,0,.95-.38,1.78-1.13,2.51s-1.69,1.1-2.8,1.1h-16.83v.02Z"/>
    <path class="cls-2" d="M489.56,176.78c.73.69,1.1,1.59,1.1,2.71s-.37,2.01-1.1,2.68-1.68,1-2.84,1h-10.12v33.78c0,1.12-.41,2.05-1.22,2.8s-1.83,1.13-3.03,1.13-2.19-.38-2.97-1.13c-.77-.75-1.16-1.69-1.16-2.8v-33.78h-10.12c-1.16,0-2.11-.34-2.84-1.03s-1.1-1.59-1.1-2.71.38-1.96,1.13-2.64c.75-.69,1.69-1.03,2.8-1.03h28.63c1.16,0,2.11.34,2.84,1.03h0Z"/>
  </g>
  <g>
    <path d="M168.46,263.41c-.77.64-1.67.96-2.7.96h-21.21c.51,2.53,1.69,4.51,3.54,5.95,1.84,1.44,3.92,2.15,6.23,2.15,1.76,0,3.13-.16,4.11-.48.99-.32,1.77-.66,2.35-1.03.58-.36.97-.61,1.19-.74.77-.39,1.5-.58,2.19-.58.9,0,1.67.32,2.31.96s.96,1.39.96,2.25c0,1.16-.6,2.21-1.8,3.15-1.2.99-2.81,1.82-4.82,2.51-2.01.68-4.05,1.03-6.11,1.03-3.6,0-6.74-.75-9.42-2.25-2.68-1.5-4.75-3.57-6.2-6.2-1.46-2.64-2.19-5.6-2.19-8.9,0-3.69.77-6.92,2.31-9.71,1.54-2.79,3.58-4.92,6.11-6.4,2.53-1.48,5.23-2.22,8.1-2.22s5.5.77,8,2.31c2.51,1.54,4.51,3.62,6.01,6.24,1.5,2.61,2.25,5.44,2.25,8.48-.04,1.03-.45,1.86-1.22,2.51ZM144.61,257.95h16.84v-.45c-.17-1.8-1.05-3.34-2.64-4.63-1.59-1.29-3.39-1.93-5.4-1.93-4.97,0-7.91,2.34-8.81,7.01Z"/>
    <path d="M183.34,277.78c-.75.75-1.68,1.12-2.8,1.12s-1.97-.38-2.7-1.12c-.73-.75-1.09-1.68-1.09-2.8v-39.72c0-1.11.37-2.05,1.12-2.8.75-.75,1.68-1.12,2.8-1.12s1.97.38,2.7,1.12c.73.75,1.09,1.68,1.09,2.8v39.72c0,1.12-.38,2.05-1.12,2.8Z"/>
    <path d="M208.89,271.64c0-1.11.56-2.06,1.67-2.83.6-.39,1.22-.58,1.86-.58.9,0,1.76.41,2.57,1.22,1.29,1.33,2.62,2.31,4.02,2.96,1.39.64,3.07.96,5.05.96,3.34-.13,5.01-1.39,5.01-3.79,0-1.24-.57-2.19-1.7-2.83-1.14-.64-2.9-1.29-5.3-1.93-2.49-.68-4.51-1.37-6.07-2.06-1.56-.68-2.91-1.72-4.05-3.12-1.14-1.39-1.7-3.27-1.7-5.62,0-2.06.59-3.85,1.77-5.37,1.18-1.52,2.72-2.7,4.63-3.54,1.91-.83,3.93-1.25,6.07-1.25s4.37.41,6.56,1.22c2.19.81,3.9,2.01,5.14,3.6.56.69.84,1.46.84,2.31,0,.99-.41,1.8-1.22,2.44-.6.47-1.29.71-2.06.71-.94,0-1.71-.3-2.31-.9-.77-.94-1.77-1.69-2.99-2.25-1.22-.56-2.6-.84-4.15-.84-3.26,0-4.89,1.18-4.89,3.54,0,.94.3,1.7.9,2.28.6.58,1.36,1.03,2.28,1.35.92.32,2.22.72,3.89,1.19,2.31.64,4.24,1.31,5.78,1.99,1.54.69,2.85,1.74,3.92,3.15,1.07,1.41,1.61,3.28,1.61,5.59,0,2.1-.62,3.93-1.86,5.5-1.24,1.56-2.84,2.75-4.79,3.57-1.95.81-3.95,1.22-6.01,1.22-2.83,0-5.46-.47-7.91-1.41-2.44-.94-4.44-2.46-5.98-4.56-.39-.51-.58-1.16-.58-1.93Z"/>
    <path d="M273.55,244.97c.73.73,1.09,1.67,1.09,2.83v27.19c0,1.12-.37,2.05-1.09,2.8-.73.75-1.65,1.12-2.76,1.12s-2.03-.36-2.73-1.09c-.71-.73-1.08-1.65-1.12-2.76-1.07,1.24-2.52,2.3-4.34,3.18-1.82.88-3.74,1.32-5.75,1.32-2.96,0-5.64-.76-8.03-2.28-2.4-1.52-4.3-3.63-5.69-6.33-1.39-2.7-2.09-5.76-2.09-9.19s.69-6.5,2.06-9.22c1.37-2.72,3.25-4.84,5.62-6.36,2.38-1.52,5-2.28,7.87-2.28,2.06,0,3.99.38,5.79,1.12,1.8.75,3.32,1.7,4.56,2.86v-.06c0-1.11.37-2.05,1.09-2.8.73-.75,1.65-1.12,2.76-1.12s2.04.36,2.76,1.09ZM264.61,269.42c1.76-2.04,2.64-4.6,2.64-7.68s-.88-5.66-2.64-7.71c-1.76-2.06-4.03-3.09-6.81-3.09s-4.99,1.03-6.75,3.09c-1.76,2.06-2.64,4.63-2.64,7.71s.87,5.65,2.6,7.68c1.74,2.04,4,3.05,6.78,3.05s5.06-1.02,6.81-3.05Z"/>
    <path d="M310.44,247.76c1.67,2.59,2.51,6.18,2.51,10.77v16.46c0,1.12-.37,2.05-1.09,2.8-.73.75-1.65,1.12-2.76,1.12s-2.04-.38-2.76-1.12c-.73-.75-1.09-1.68-1.09-2.8v-16.46c0-2.36-.49-4.21-1.48-5.56-.99-1.35-2.68-2.03-5.08-2.03s-4.43.72-5.85,2.15c-1.41,1.44-2.12,3.25-2.12,5.43v16.46c0,1.12-.37,2.05-1.09,2.8-.73.75-1.65,1.12-2.76,1.12s-2.04-.38-2.76-1.12c-.73-.75-1.09-1.68-1.09-2.8v-26.55c0-1.11.36-2.05,1.09-2.8.73-.75,1.65-1.12,2.76-1.12s2.03.38,2.76,1.12c.73.75,1.09,1.68,1.09,2.8v1.09c1.16-1.54,2.67-2.87,4.53-3.99,1.86-1.11,3.91-1.67,6.14-1.67,4.37,0,7.39,1.3,9.06,3.89Z"/>
    <path d="M351.9,244.97c.73.73,1.09,1.67,1.09,2.83v27.19c0,1.12-.37,2.05-1.09,2.8-.73.75-1.65,1.12-2.76,1.12s-2.02-.36-2.73-1.09c-.71-.73-1.08-1.65-1.12-2.76-1.07,1.24-2.52,2.3-4.34,3.18s-3.74,1.32-5.75,1.32c-2.96,0-5.63-.76-8.03-2.28-2.4-1.52-4.3-3.63-5.69-6.33-1.39-2.7-2.09-5.76-2.09-9.19s.68-6.5,2.06-9.22c1.37-2.72,3.25-4.84,5.62-6.36,2.38-1.52,5-2.28,7.87-2.28,2.06,0,3.99.38,5.79,1.12,1.8.75,3.32,1.7,4.56,2.86v-.06c0-1.11.36-2.05,1.09-2.8.73-.75,1.65-1.12,2.76-1.12s2.04.36,2.76,1.09ZM342.97,269.42c1.76-2.04,2.63-4.6,2.63-7.68s-.88-5.66-2.63-7.71c-1.76-2.06-4.03-3.09-6.81-3.09s-4.99,1.03-6.75,3.09c-1.76,2.06-2.64,4.63-2.64,7.71s.87,5.65,2.6,7.68,4,3.05,6.78,3.05,5.06-1.02,6.81-3.05Z"/>
    <path d="M379.57,272.51c.49.58.74,1.34.74,2.28,0,1.16-.63,2.13-1.9,2.92-1.26.79-2.69,1.19-4.27,1.19-2.66,0-4.9-.57-6.72-1.7-1.82-1.13-2.73-3.55-2.73-7.23v-17.74h-2.96c-1.03,0-1.89-.34-2.57-1.03-.69-.68-1.03-1.54-1.03-2.57s.34-1.81,1.03-2.47,1.54-1,2.57-1h2.96v-4.11c0-1.11.38-2.05,1.12-2.8.75-.75,1.68-1.12,2.8-1.12s1.97.38,2.7,1.12,1.09,1.68,1.09,2.8v4.11h4.56c1.03,0,1.88.34,2.57,1.03.69.69,1.03,1.54,1.03,2.57s-.34,1.81-1.03,2.47c-.69.67-1.54,1-2.57,1h-4.56v17.42c0,.9.24,1.55.71,1.96.47.41,1.11.61,1.93.61.34,0,.81-.09,1.41-.26.51-.21,1.01-.32,1.48-.32.6,0,1.15.29,1.64.87Z"/>
    <path d="M394.87,277.78c-.75.75-1.68,1.12-2.8,1.12s-1.97-.38-2.7-1.12c-.73-.75-1.09-1.68-1.09-2.8v-39.72c0-1.11.37-2.05,1.12-2.8.75-.75,1.68-1.12,2.8-1.12s1.97.38,2.7,1.12c.73.75,1.09,1.68,1.09,2.8v39.72c0,1.12-.38,2.05-1.12,2.8Z"/>
    <path d="M435.59,244.97c.73.73,1.09,1.67,1.09,2.83v27.19c0,1.12-.37,2.05-1.09,2.8-.73.75-1.65,1.12-2.76,1.12s-2.02-.36-2.73-1.09c-.71-.73-1.08-1.65-1.12-2.76-1.07,1.24-2.52,2.3-4.34,3.18s-3.74,1.32-5.75,1.32c-2.96,0-5.63-.76-8.03-2.28-2.4-1.52-4.3-3.63-5.69-6.33-1.39-2.7-2.09-5.76-2.09-9.19s.68-6.5,2.06-9.22c1.37-2.72,3.25-4.84,5.62-6.36,2.38-1.52,5-2.28,7.87-2.28,2.06,0,3.99.38,5.79,1.12,1.8.75,3.32,1.7,4.56,2.86v-.06c0-1.11.36-2.05,1.09-2.8.73-.75,1.65-1.12,2.76-1.12s2.04.36,2.76,1.09ZM426.66,269.42c1.76-2.04,2.63-4.6,2.63-7.68s-.88-5.66-2.63-7.71c-1.76-2.06-4.03-3.09-6.81-3.09s-4.99,1.03-6.75,3.09c-1.76,2.06-2.64,4.63-2.64,7.71s.87,5.65,2.6,7.68,4,3.05,6.78,3.05,5.06-1.02,6.81-3.05Z"/>
    <path d="M466.15,244.97c.88.73,1.32,1.59,1.32,2.57,0,1.33-.34,2.33-1.03,2.99-.69.67-1.5,1-2.44,1-.64,0-1.37-.15-2.19-.45-.13-.04-.42-.13-.87-.26-.45-.13-.93-.19-1.45-.19-1.12,0-2.19.34-3.21,1.03-1.03.69-1.88,1.73-2.54,3.12-.67,1.39-1,3.05-1,4.98v15.23c0,1.12-.37,2.05-1.09,2.8-.73.75-1.65,1.12-2.76,1.12s-2.04-.38-2.76-1.12c-.73-.75-1.09-1.68-1.09-2.8v-26.55c0-1.11.36-2.05,1.09-2.8.73-.75,1.65-1.12,2.76-1.12s2.03.38,2.76,1.12c.73.75,1.09,1.68,1.09,2.8v.84c.99-1.76,2.4-3.1,4.24-4.02,1.84-.92,3.81-1.38,5.91-1.38,1.29,0,2.37.36,3.25,1.09Z"/>
    <path d="M479.1,277.78c-.73.75-1.65,1.12-2.76,1.12s-2.04-.38-2.76-1.12c-.73-.75-1.09-1.68-1.09-2.8v-26.55c0-1.11.36-2.05,1.09-2.8.73-.75,1.65-1.12,2.76-1.12s2.03.38,2.76,1.12c.73.75,1.09,1.68,1.09,2.8v26.55c0,1.12-.36,2.05-1.09,2.8Z"/>
  </g>
</svg>