<?xml version="1.0" encoding="UTF-8"?>
<svg id="katman_1" data-name="katman 1" xmlns="http://www.w3.org/2000/svg" xmlns:xlink="http://www.w3.org/1999/xlink" viewBox="0 0 535.09 296.03">
  <defs>
    <style>
      .cls-1 {
        fill: url(#Adsız_degrade);
      }

      .cls-2 {
        fill: #1d1d1b;
      }
    </style>
    <linearGradient id="Adsız_degrade" data-name="Adsız degrade" x1="94.48" y1="202.6" x2="128.74" y2="202.6" gradientTransform="translate(0 220.6) scale(1 -1)" gradientUnits="userSpaceOnUse">
      <stop offset="0" stop-color="#824b37"/>
      <stop offset="1" stop-color="#d7987a"/>
    </linearGradient>
  </defs>
  <path class="cls-2" d="M32.3,10.34v32.82c0,1.6-1.3,2.89-2.89,2.89H9.47c-5.23,0-9.47,4.24-9.47,9.47v.29c0,5.23,4.24,9.47,9.47,9.47h20.69c1.6,0,2.89,1.3,2.89,2.89v40.38s1.05,43.75,43.69,43.97c0,0,10.28,1.4,11.72-8.49.98-6.78-3.8-9.37-7.4-10.39-1.25-.36-2.55-.55-3.85-.58-3.79-.09-17.73-1.44-23.18-16.19-1.2-3.24-1.73-6.69-1.76-10.15l-.33-38.52c0-1.61,1.29-2.92,2.89-2.92h24.14c5.23,0,9.47-4.24,9.47-9.47v-.29c0-5.23-4.24-9.47-9.47-9.47h-24.57c-1.59,0-2.88-1.28-2.89-2.87l-.27-32.92c-.04-5.2-4.27-9.39-9.47-9.39h0c-5.23,0-9.47,4.24-9.47,9.47Z"/>
  <path class="cls-2" d="M111.61,45.48h0c5.5,0,9.96,4.46,9.96,9.96v87.19c0,5.5-4.46,9.96-9.96,9.96h0c-5.5,0-9.96-4.46-9.96-9.96V55.44c0-5.5,4.46-9.96,9.96-9.96Z"/>
  <circle class="cls-1" cx="111.61" cy="18" r="17.13"/>
  <path class="cls-2" d="M163.27,149.63s1.92-.55,3.58-1.64c1.16-.75,1.88-2.02,2.02-3.44,0,0,0-.08.02-.2.14-1.49-.52-2.97-1.77-3.8-1.53-1.01-3.62-2.1-5.05-2.81-.94-.47-1.9-.87-2.87-1.28-22.61-9.62-39.45-50.78-13.25-77.39,26.2-26.61,59.85-9.74,59.85-9.74,15.15-1.72,18.81-16.25,19.45-26.73.36-5.87,5.48-10.29,11.34-9.71h0c5.89.58,10.06,5.97,9.22,11.83-3.86,27.1-24.47,40.92-24.47,40.92,8,10.42,7.7,27.77,7.7,27.77-1.36,32.39-23.98,43.21-32.13,46.07-1.73.61-2.89,2.24-2.89,4.07h0c0,2.11,1.53,3.92,3.62,4.25,30.84,4.91,31.4,37.07,31.4,37.07,0,0-.75,34.26-46.49,36.56-30.19,1.51-41.57-15.56-45.82-27.34-2.73-7.58-2.93-15.94,0-23.45,7.06-18.03,26.53-21.02,26.53-21.02h.01ZM181.26,165.54c-15.79,0-28.58,8.16-28.58,18.23s12.8,18.23,28.58,18.23,28.58-8.16,28.58-18.23-12.8-18.23-28.58-18.23ZM181.26,64.87c-15.85,0-28.7,12.85-28.7,28.7s12.85,28.7,28.7,28.7,28.7-12.85,28.7-28.7-12.85-28.7-28.7-28.7Z"/>
  <path class="cls-2" d="M270.75,149.63s1.92-.55,3.58-1.64c1.16-.75,1.88-2.02,2.02-3.44,0,0,0-.08.02-.2.14-1.49-.52-2.97-1.77-3.8-1.53-1.01-3.62-2.1-5.05-2.81-.94-.47-1.9-.87-2.87-1.28-22.61-9.62-39.45-50.78-13.25-77.39,26.92-27.34,59.85-9.74,59.85-9.74,15.15-1.72,18.81-16.25,19.45-26.73.36-5.87,5.48-10.29,11.34-9.71h0c5.89.58,10.06,5.97,9.22,11.83-3.86,27.1-24.47,40.92-24.47,40.92,8,10.42,7.7,27.77,7.7,27.77-1.36,32.39-23.98,43.21-32.13,46.07-1.73.61-2.89,2.24-2.89,4.07h0c0,2.11,1.53,3.92,3.62,4.25,30.84,4.91,31.4,37.07,31.4,37.07,0,0-.75,34.26-46.49,36.56-30.19,1.51-41.57-15.56-45.82-27.34-2.73-7.58-2.93-15.94,0-23.45,7.06-18.03,26.53-21.02,26.53-21.02h.01ZM288.73,165.54c-15.79,0-28.58,8.16-28.58,18.23s12.8,18.23,28.58,18.23,28.58-8.16,28.58-18.23-12.8-18.23-28.58-18.23ZM288.73,64.87c-15.85,0-28.7,12.85-28.7,28.7s12.85,28.7,28.7,28.7,28.7-12.85,28.7-28.7-12.85-28.7-28.7-28.7Z"/>
  <path class="cls-2" d="M419.59,49.62c28.34,13.92,28.4,39.12,24.69,48.51-1.89,4.77-5.75,8.44-10.88,8.4l-62.78-.49c-2.06-.02-3.58,1.95-3.01,3.93,2.09,7.25,9.03,21.96,30.84,22.27,14.46.21,21.82-5.26,26.92-10.96,3.13-3.5,8.42-4.03,12.11-1.12l.17.13c3.92,3.08,4.65,8.79,1.67,12.73-15.78,20.88-34.53,19.48-34.53,19.48,0,0-52.97,4.5-58.26-50.81-2.44-25.56,10.31-41.39,23.55-49.43,16.17-9.83,32.52-10.99,49.51-2.64ZM371.25,86.6h51.81c1.67,0,2.89-1.6,2.42-3.2-1.47-4.99-6.02-14.45-19.83-18.36-7.86-2.23-16.34-1.64-23.51,2.28-5.13,2.8-10.39,7.63-13.27,15.93-.57,1.64.65,3.35,2.38,3.35h0Z"/>
  <path class="cls-2" d="M478.08,58.4l-.23-5.38c0-5.53-4.49-10.02-10.02-10.02h0c-5.53,0-10.02,4.49-10.02,10.02v89.49c0,5.56,4.51,10.07,10.07,10.07h0c5.52,0,10.01-4.45,10.07-9.97l.45-43.45c.2-18.8,14.81-34.3,33.57-35.6h0c3.86-.27,7.73.14,11.45,1.21h1.02c5.47-.03,8.3-3.78,8.3-9.25h0c0-4.06-2.45-8.95-6.34-10.11,0,0-5.13-3.92-22.33-.78-11.38,2.08-18.55,7.16-26.01,13.76h.02Z"/>
  <g>
    <path class="cls-2" d="M396.78,182.72c.77.79,1.16,1.79,1.16,2.97v14.48c0,1.59-.71,2.83-2.12,3.69-4.46,2.77-9.35,4.16-14.68,4.16-4.5,0-8.67-1.1-12.5-3.31-3.82-2.2-6.85-5.19-9.08-8.95-2.23-3.76-3.35-7.86-3.35-12.33s1.11-8.57,3.35-12.33c2.23-3.76,5.25-6.74,9.08-8.95,3.82-2.2,7.99-3.31,12.5-3.31s8.42.91,11.75,2.73c.69.36,1.2.85,1.54,1.43.34.59.51,1.23.51,1.92,0,1.13-.37,2.13-1.12,2.97-.75.84-1.67,1.26-2.76,1.26-.68,0-1.43-.18-2.26-.55-2.46-1.05-5.01-1.57-7.65-1.57-2.91,0-5.6.74-8.06,2.22-2.46,1.48-4.41,3.47-5.84,5.97s-2.15,5.23-2.15,8.2.72,5.69,2.15,8.2c1.43,2.51,3.38,4.5,5.84,5.97,2.46,1.48,5.15,2.22,8.06,2.22,1.27,0,2.64-.12,4.1-.34s2.73-.52,3.82-.89v-8.88h-6.42c-1.19,0-2.17-.39-2.97-1.16-.79-.77-1.2-1.75-1.2-2.93s.4-2.16,1.2-2.93c.79-.77,1.79-1.16,2.97-1.16h11.19c1.19,0,2.16.4,2.93,1.2v.02Z"/>
    <path class="cls-2" d="M413.37,206.13c-.87.79-1.86,1.2-3.01,1.2-1.23,0-2.25-.4-3.04-1.2s-1.2-1.79-1.2-2.97v-39.47c0-1.19.41-2.17,1.23-2.97s1.86-1.2,3.15-1.2c1.13,0,2.12.4,2.93,1.2s1.23,1.79,1.23,2.97v39.47c0,1.19-.43,2.17-1.29,2.97Z"/>
    <path class="cls-2" d="M433.45,167.39v12.02h14.75c1.19,0,2.17.37,2.97,1.12s1.2,1.72,1.2,2.9c0,1.01-.4,1.89-1.2,2.66s-1.79,1.16-2.97,1.16h-14.75v15.91c0,1.19-.42,2.17-1.26,2.97-.85.79-1.83,1.2-2.97,1.2-1.27,0-2.31-.38-3.1-1.16-.79-.77-1.2-1.78-1.2-3.01v-39.47c0-1.19.4-2.17,1.2-2.97s1.79-1.2,2.97-1.2h22.19c1.19,0,2.17.37,2.97,1.12.79.75,1.2,1.72,1.2,2.9,0,1.01-.4,1.89-1.2,2.66s-1.79,1.16-2.97,1.16h-17.82v.02Z"/>
    <path class="cls-2" d="M498.72,160.63c.77.73,1.16,1.68,1.16,2.87s-.39,2.13-1.16,2.84-1.78,1.06-3.01,1.06h-10.72v35.78c0,1.19-.43,2.17-1.29,2.97s-1.94,1.2-3.21,1.2-2.32-.4-3.15-1.2c-.82-.79-1.23-1.79-1.23-2.97v-35.78h-10.72c-1.23,0-2.23-.36-3.01-1.09s-1.16-1.68-1.16-2.87.4-2.08,1.2-2.8c.79-.73,1.79-1.09,2.97-1.09h30.32c1.23,0,2.23.36,3.01,1.09h0Z"/>
  </g>
  <g>
    <path d="M51.55,267.21H12.85c.27,4.53,1.62,8.06,4.03,10.59,2.42,2.54,5.63,3.8,9.65,3.8,3.57,0,6.55-.75,8.93-2.25,2.38-1.5,4.46-3.91,6.23-7.25l9.34,5.21c-2.72,4.87-6.09,8.49-10.11,10.87-4.02,2.38-8.73,3.57-14.14,3.57-7.76,0-13.94-2.37-18.53-7.1-4.59-4.73-6.89-11.04-6.89-18.94s2.37-13.83,7.12-18.71c4.75-4.88,10.85-7.33,18.3-7.33s13.87,2.23,18.22,6.69c4.36,4.46,6.53,10.7,6.53,18.73v2.09ZM40.06,259.76c-.44-3.47-1.77-6.12-3.98-7.94-2.21-1.82-5.24-2.73-9.09-2.73-3.64,0-6.57.89-8.78,2.66-2.21,1.77-3.76,4.44-4.65,8.01h26.49Z"/>
    <path d="M63.6,289.77v-79.12h11.08v79.12h-11.08Z"/>
    <path d="M116.48,280.99l9.19-5c.68,2.42,1.94,4.25,3.78,5.51,1.84,1.26,4.2,1.89,7.09,1.89,2.48,0,4.43-.57,5.85-1.71,1.41-1.14,2.12-2.7,2.12-4.67,0-2.62-2.52-4.87-7.55-6.74-1.7-.61-3.01-1.12-3.93-1.53-5.17-2.14-8.79-4.32-10.85-6.53-2.06-2.21-3.09-4.9-3.09-8.07,0-4.32,1.69-7.83,5.08-10.52,3.39-2.69,7.87-4.03,13.45-4.03,3.74,0,6.95.69,9.62,2.07,2.67,1.38,4.62,3.34,5.84,5.9l-7.86,5.41c-.58-1.53-1.59-2.75-3.04-3.65-1.45-.9-3.12-1.35-5.03-1.35-2.11,0-3.8.5-5.08,1.51-1.28,1-1.92,2.34-1.92,4.01,0,2.52,2.86,4.82,8.58,6.89,1.8.65,3.2,1.17,4.19,1.58,4.46,1.77,7.65,3.77,9.57,6,1.92,2.23,2.88,5.01,2.88,8.35,0,4.83-1.75,8.62-5.26,11.36-3.51,2.74-8.34,4.11-14.5,4.11-4.73,0-8.66-.89-11.79-2.66-3.13-1.77-5.58-4.47-7.35-8.12Z"/>
    <path d="M212.09,289.77h-11.08v-6.28c-1.97,2.79-4.28,4.87-6.92,6.23-2.64,1.36-5.66,2.04-9.06,2.04-6.84,0-12.23-2.34-16.16-7.02-3.93-4.68-5.9-11.08-5.9-19.22s2.01-13.96,6.02-18.71c4.02-4.75,9.26-7.12,15.72-7.12,3.95,0,7.33.83,10.13,2.48,2.81,1.65,4.86,4.03,6.15,7.12v-7.91h11.08v48.39ZM201.32,265.42c0-5-1.17-8.9-3.5-11.69-2.33-2.79-5.59-4.19-9.78-4.19s-7.48,1.44-9.88,4.31c-2.4,2.88-3.6,6.87-3.6,11.97s1.16,9.1,3.47,11.89,5.58,4.19,9.8,4.19c3.98,0,7.22-1.51,9.72-4.54,2.5-3.03,3.75-7.01,3.75-11.95Z"/>
    <path d="M227.41,289.77v-48.39h10.41v7.91c2.21-3.33,4.81-5.77,7.81-7.3,3-1.53,6.64-2.3,10.92-2.3,3.61,0,6.68.57,9.21,1.71,2.54,1.14,4.52,2.83,5.95,5.08.85,1.33,1.46,2.88,1.84,4.64.37,1.77.56,4.87.56,9.29v29.35h-11.18v-24.86c0-6.36-.77-10.59-2.32-12.69s-4.3-3.14-8.24-3.14c-2.59,0-4.89.48-6.92,1.43-2.02.95-3.62,2.3-4.77,4.03-.82,1.16-1.39,2.65-1.71,4.47-.32,1.82-.49,4.72-.49,8.7v22.05h-11.08Z"/>
    <path d="M334.4,289.77h-11.08v-6.28c-1.97,2.79-4.28,4.87-6.92,6.23-2.64,1.36-5.66,2.04-9.06,2.04-6.84,0-12.23-2.34-16.16-7.02-3.93-4.68-5.9-11.08-5.9-19.22s2.01-13.96,6.02-18.71c4.02-4.75,9.26-7.12,15.72-7.12,3.95,0,7.33.83,10.13,2.48,2.81,1.65,4.86,4.03,6.15,7.12v-7.91h11.08v48.39ZM323.63,265.42c0-5-1.17-8.9-3.5-11.69-2.33-2.79-5.59-4.19-9.78-4.19s-7.48,1.44-9.88,4.31c-2.4,2.88-3.6,6.87-3.6,11.97s1.16,9.1,3.47,11.89,5.58,4.19,9.8,4.19c3.98,0,7.22-1.51,9.72-4.54,2.5-3.03,3.75-7.01,3.75-11.95Z"/>
    <path d="M352.32,289.77v-38.69h-8.47v-9.7h8.47v-18.33h11.08v18.33h8.47v9.7h-8.47v38.69h-11.08Z"/>
    <path d="M381.93,289.77v-79.12h11.08v79.12h-11.08Z"/>
    <path d="M454.37,289.77h-11.08v-6.28c-1.97,2.79-4.28,4.87-6.92,6.23-2.64,1.36-5.66,2.04-9.06,2.04-6.84,0-12.23-2.34-16.16-7.02-3.93-4.68-5.9-11.08-5.9-19.22s2.01-13.96,6.02-18.71c4.02-4.75,9.26-7.12,15.72-7.12,3.95,0,7.33.83,10.13,2.48,2.81,1.65,4.86,4.03,6.15,7.12v-7.91h11.08v48.39ZM443.6,265.42c0-5-1.17-8.9-3.5-11.69-2.33-2.79-5.59-4.19-9.78-4.19s-7.48,1.44-9.88,4.31c-2.4,2.88-3.6,6.87-3.6,11.97s1.16,9.1,3.47,11.89,5.58,4.19,9.8,4.19c3.98,0,7.22-1.51,9.72-4.54,2.5-3.03,3.75-7.01,3.75-11.95Z"/>
    <path d="M480.76,249.09c1.19-3.2,2.76-5.56,4.72-7.09,1.96-1.53,4.38-2.3,7.27-2.3,1.57,0,3.11.19,4.62.56,1.51.38,3,.92,4.47,1.63l-3.98,9.39c-.95-.68-1.98-1.18-3.09-1.51-1.11-.32-2.34-.48-3.7-.48-3.67,0-6.31,1.47-7.91,4.42-1.6,2.94-2.4,7.89-2.4,14.83v21.24h-11.08v-48.5h11.08v7.81Z"/>
    <path d="M508.68,289.77v-48.39h11.08v48.39h-11.08Z"/>
  </g>
</svg>