<?xml version="1.0" encoding="UTF-8"?>
<svg id="katman_1" xmlns="http://www.w3.org/2000/svg" version="1.1" xmlns:xlink="http://www.w3.org/1999/xlink" viewBox="0 0 532.7 221.68">
  <!-- Generator: Adobe Illustrator 29.6.1, SVG Export Plug-In . SVG Version: 2.1.1 Build 9)  -->
  <defs>
    <style>
      .st0 {
        fill: #1d1d1b;
      }

      .st1 {
        fill: url(#Adsız_degrade_7);
      }
    </style>
    <linearGradient id="Adsız_degrade_7" data-name="Adsız degrade 7" x1="94.48" y1="18" x2="128.75" y2="18" gradientUnits="userSpaceOnUse">
      <stop offset="0" stop-color="#824b37"/>
      <stop offset="1" stop-color="#d7987a"/>
    </linearGradient>
  </defs>
  <path class="st0" d="M32.3,10.34v32.82c0,1.6-1.3,2.89-2.89,2.89H9.47c-5.23,0-9.47,4.24-9.47,9.47v.29c0,5.23,4.24,9.47,9.47,9.47h20.69c1.6,0,2.89,1.3,2.89,2.89v40.38s1.05,43.75,43.69,43.97c0,0,10.28,1.4,11.72-8.49.98-6.78-3.8-9.37-7.4-10.39-1.25-.36-2.55-.55-3.85-.58-3.79-.09-17.73-1.44-23.18-16.19-1.2-3.24-1.73-6.69-1.76-10.15l-.33-38.52c-.01-1.61,1.29-2.92,2.89-2.92h24.14c5.23,0,9.47-4.24,9.47-9.47v-.29c0-5.23-4.24-9.47-9.47-9.47h-24.57c-1.59,0-2.88-1.28-2.89-2.87l-.27-32.92c-.04-5.2-4.27-9.39-9.47-9.39h0c-5.23,0-9.47,4.24-9.47,9.47Z"/>
  <rect class="st0" x="101.65" y="45.48" width="19.92" height="107.11" rx="9.96" ry="9.96"/>
  <circle class="st1" cx="111.61" cy="18" r="17.13"/>
  <path class="st0" d="M163.27,149.63s1.92-.55,3.58-1.64c1.16-.75,1.88-2.02,2.02-3.44,0,0,0-.08.02-.2.14-1.49-.52-2.97-1.77-3.8-1.53-1.01-3.62-2.1-5.05-2.81-.94-.47-1.9-.87-2.87-1.28-22.61-9.62-39.45-50.78-13.25-77.39s59.85-9.74,59.85-9.74c15.15-1.72,18.81-16.25,19.45-26.73.36-5.87,5.48-10.29,11.34-9.71h0c5.89.58,10.06,5.97,9.22,11.83-3.86,27.1-24.47,40.92-24.47,40.92,8,10.42,7.7,27.77,7.7,27.77-1.36,32.39-23.98,43.21-32.13,46.07-1.73.61-2.89,2.24-2.89,4.07h0c0,2.11,1.53,3.92,3.62,4.25,30.84,4.91,31.4,37.07,31.4,37.07,0,0-.75,34.26-46.49,36.56-30.19,1.51-41.57-15.56-45.82-27.34-2.73-7.58-2.93-15.94,0-23.45,7.06-18.03,26.53-21.02,26.53-21.02ZM181.26,165.54c-15.79,0-28.58,8.16-28.58,18.23s12.8,18.23,28.58,18.23,28.58-8.16,28.58-18.23-12.8-18.23-28.58-18.23ZM181.26,64.87c-15.85,0-28.7,12.85-28.7,28.7s12.85,28.7,28.7,28.7,28.7-12.85,28.7-28.7-12.85-28.7-28.7-28.7Z"/>
  <path class="st0" d="M270.75,149.63s1.92-.55,3.58-1.64c1.16-.75,1.88-2.02,2.02-3.44,0,0,0-.08.02-.2.14-1.49-.52-2.97-1.77-3.8-1.53-1.01-3.62-2.1-5.05-2.81-.94-.47-1.9-.87-2.87-1.28-22.61-9.62-39.45-50.78-13.25-77.39,26.92-27.34,59.85-9.74,59.85-9.74,15.15-1.72,18.81-16.25,19.45-26.73.36-5.87,5.48-10.29,11.34-9.71h0c5.89.58,10.06,5.97,9.22,11.83-3.86,27.1-24.47,40.92-24.47,40.92,8,10.42,7.7,27.77,7.7,27.77-1.36,32.39-23.98,43.21-32.13,46.07-1.73.61-2.89,2.24-2.89,4.07h0c0,2.11,1.53,3.92,3.62,4.25,30.84,4.91,31.4,37.07,31.4,37.07,0,0-.75,34.26-46.49,36.56-30.19,1.51-41.57-15.56-45.82-27.34-2.73-7.58-2.93-15.94,0-23.45,7.06-18.03,26.53-21.02,26.53-21.02ZM288.73,165.54c-15.79,0-28.58,8.16-28.58,18.23s12.8,18.23,28.58,18.23,28.58-8.16,28.58-18.23-12.8-18.23-28.58-18.23ZM288.73,64.87c-15.85,0-28.7,12.85-28.7,28.7s12.85,28.7,28.7,28.7,28.7-12.85,28.7-28.7-12.85-28.7-28.7-28.7Z"/>
  <path class="st0" d="M419.59,49.62c28.34,13.92,28.4,39.12,24.69,48.51-1.89,4.77-5.75,8.44-10.88,8.4l-62.78-.49c-2.06-.02-3.58,1.95-3.01,3.93,2.09,7.25,9.03,21.96,30.84,22.27,14.46.21,21.82-5.26,26.92-10.96,3.13-3.5,8.42-4.03,12.11-1.12l.17.13c3.92,3.08,4.65,8.79,1.67,12.73-15.78,20.88-34.53,19.48-34.53,19.48,0,0-52.97,4.5-58.26-50.81-2.44-25.56,10.31-41.39,23.55-49.43,16.17-9.83,32.52-10.99,49.51-2.64ZM371.25,86.6h51.81c1.67,0,2.89-1.6,2.42-3.2-1.47-4.99-6.02-14.45-19.83-18.36-7.86-2.23-16.34-1.64-23.51,2.28-5.13,2.8-10.39,7.63-13.27,15.93-.57,1.64.65,3.35,2.38,3.35Z"/>
  <path class="st0" d="M478.08,58.4l-.23-5.38c0-5.53-4.49-10.02-10.02-10.02h0c-5.53,0-10.02,4.49-10.02,10.02v89.49c0,5.56,4.51,10.07,10.07,10.07h0c5.52,0,10.01-4.45,10.07-9.97l.45-43.45c.2-18.8,14.81-34.3,33.57-35.6h0c3.86-.27,7.73.14,11.45,1.21h1.02c5.47-.03,8.3-3.78,8.3-9.25h0c0-4.06-2.45-8.95-6.34-10.11,0,0-5.13-3.92-22.33-.78-11.38,2.08-18.55,7.16-26.01,13.76h0Z"/>
  <g>
    <path class="st0" d="M393.31,197.64c.73.75,1.1,1.69,1.1,2.8v13.67c0,1.5-.67,2.67-2,3.48-4.21,2.62-8.83,3.93-13.86,3.93-4.25,0-8.19-1.04-11.8-3.13-3.61-2.08-6.47-4.9-8.57-8.45-2.11-3.55-3.16-7.42-3.16-11.64s1.05-8.09,3.16-11.64c2.11-3.55,4.96-6.36,8.57-8.45,3.61-2.08,7.54-3.13,11.8-3.13s7.95.86,11.09,2.58c.65.34,1.13.8,1.45,1.35.32.56.48,1.16.48,1.81,0,1.07-.35,2.01-1.06,2.8-.71.79-1.58,1.19-2.61,1.19-.64,0-1.35-.17-2.13-.52-2.32-.99-4.73-1.48-7.22-1.48-2.75,0-5.29.7-7.61,2.1-2.32,1.4-4.16,3.28-5.51,5.64-1.35,2.36-2.03,4.94-2.03,7.74s.68,5.37,2.03,7.74c1.35,2.37,3.19,4.25,5.51,5.64,2.32,1.4,4.86,2.1,7.61,2.1,1.2,0,2.49-.11,3.87-.32,1.38-.21,2.58-.49,3.61-.84v-8.38h-6.06c-1.12,0-2.05-.37-2.8-1.1-.75-.73-1.13-1.65-1.13-2.77s.38-2.04,1.13-2.77c.75-.73,1.69-1.1,2.8-1.1h10.57c1.12,0,2.04.38,2.77,1.13Z"/>
    <path class="st0" d="M408.97,219.75c-.82.75-1.76,1.13-2.84,1.13-1.16,0-2.12-.38-2.87-1.13-.75-.75-1.13-1.69-1.13-2.8v-37.27c0-1.12.39-2.05,1.16-2.8.77-.75,1.76-1.13,2.97-1.13,1.07,0,2,.38,2.77,1.13.77.75,1.16,1.69,1.16,2.8v37.27c0,1.12-.41,2.05-1.22,2.8Z"/>
    <path class="st0" d="M427.93,183.17v11.35h13.93c1.12,0,2.05.35,2.8,1.06s1.13,1.62,1.13,2.74c0,.95-.38,1.78-1.13,2.51-.75.73-1.69,1.1-2.8,1.1h-13.93v15.02c0,1.12-.4,2.05-1.19,2.8-.8.75-1.73,1.13-2.8,1.13-1.2,0-2.18-.36-2.93-1.1-.75-.73-1.13-1.68-1.13-2.84v-37.27c0-1.12.38-2.05,1.13-2.8s1.69-1.13,2.8-1.13h20.95c1.12,0,2.05.35,2.8,1.06.75.71,1.13,1.62,1.13,2.74,0,.95-.38,1.78-1.13,2.51-.75.73-1.69,1.1-2.8,1.1h-16.83Z"/>
    <path class="st0" d="M489.56,176.78c.73.69,1.1,1.59,1.1,2.71s-.37,2.01-1.1,2.68c-.73.67-1.68,1-2.84,1h-10.12v33.78c0,1.12-.41,2.05-1.22,2.8s-1.83,1.13-3.03,1.13-2.19-.38-2.97-1.13c-.77-.75-1.16-1.69-1.16-2.8v-33.78h-10.12c-1.16,0-2.11-.34-2.84-1.03-.73-.69-1.1-1.59-1.1-2.71s.38-1.96,1.13-2.64c.75-.69,1.69-1.03,2.8-1.03h28.63c1.16,0,2.11.34,2.84,1.03Z"/>
  </g>
</svg>